<?xml version="1.0" standalone="no"?>
<!DOCTYPE svg PUBLIC "-//W3C//DTD SVG 20010904//EN"
 "http://www.w3.org/TR/2001/REC-SVG-20010904/DTD/svg10.dtd">
<svg version="1.0" xmlns="http://www.w3.org/2000/svg"
 width="1024.000000pt" height="1024.000000pt" viewBox="0 0 1024.000000 1024.000000"
 preserveAspectRatio="xMidYMid meet">
<metadata>
Created by potrace 1.11, written by Peter Selinger 2001-2013
</metadata>
<g transform="translate(0.000000,1024.000000) scale(0.100000,-0.100000)"
fill="#000000" stroke="none">
<path d="M5238 9396 c-1 -2 -118 -6 -258 -10 -140 -3 -295 -8 -345 -11 -49 -2
-142 -7 -205 -10 -202 -9 -303 -14 -385 -20 -44 -2 -134 -7 -200 -11 -66 -3
-148 -7 -182 -9 -89 -5 -328 -16 -468 -20 -66 -2 -367 -4 -670 -5 -601 -1
-640 -4 -745 -58 -180 -94 -100 -244 167 -312 39 -11 91 -21 115 -25 24 -3 63
-8 88 -12 25 -3 54 -7 65 -9 10 -2 37 -6 60 -10 22 -3 45 -7 50 -8 6 -2 28 -6
50 -10 174 -33 345 -104 421 -173 58 -54 113 -156 128 -237 2 -12 9 -39 15
-61 11 -42 17 -83 26 -175 3 -30 8 -75 10 -100 15 -152 30 -459 42 -835 10
-320 9 -2342 -1 -2925 -12 -678 -12 -677 -31 -1330 -8 -270 -29 -752 -41 -905
-2 -33 -6 -94 -9 -135 -3 -41 -8 -91 -10 -110 -2 -19 -7 -57 -10 -85 -15 -129
-31 -231 -46 -289 -41 -155 -132 -256 -304 -337 -70 -33 -273 -101 -337 -113
-13 -2 -61 -13 -108 -24 -47 -11 -101 -22 -120 -26 -19 -3 -46 -8 -60 -11 -14
-3 -38 -7 -55 -10 -70 -12 -93 -17 -140 -32 -89 -28 -173 -74 -211 -115 -33
-37 -36 -44 -31 -87 7 -60 52 -100 145 -129 102 -33 145 -36 432 -32 457 6
997 4 1205 -4 110 -4 250 -9 310 -11 61 -2 200 -7 310 -10 110 -3 247 -8 305
-10 110 -5 410 -14 640 -20 192 -5 540 -5 640 0 124 6 345 24 375 30 11 2 48
7 81 10 34 3 70 7 81 9 11 3 44 7 74 11 30 3 61 8 69 10 8 2 35 7 60 10 87 12
372 71 483 100 9 3 27 7 39 10 47 10 209 58 308 92 387 131 682 292 993 542
315 255 545 557 680 896 40 102 99 291 111 359 3 16 10 52 15 80 10 52 14 74
28 181 10 78 10 471 0 555 -17 148 -32 220 -73 362 -78 271 -220 534 -408 758
-63 74 -275 278 -356 343 -223 178 -583 391 -840 497 -64 26 -100 61 -100 95
0 20 11 30 52 51 77 39 253 149 332 207 377 278 610 616 716 1037 10 41 21 91
24 110 3 19 8 46 11 60 27 128 27 536 0 668 -92 448 -264 775 -568 1075 -128
127 -255 222 -442 334 -132 79 -370 169 -600 227 -129 32 -321 70 -415 81 -25
3 -54 8 -65 10 -11 2 -49 7 -85 10 -36 3 -74 8 -85 10 -11 2 -58 7 -105 10
-47 4 -101 8 -120 11 -19 2 -138 6 -265 10 -126 3 -235 7 -242 9 -6 2 -13 2
-15 1z m97 -440 c58 -6 124 -15 170 -22 22 -4 49 -8 60 -10 47 -6 183 -37 263
-60 814 -232 1265 -844 1246 -1689 -4 -169 -6 -193 -36 -320 -86 -373 -320
-736 -623 -966 -101 -76 -238 -150 -325 -175 -8 -2 -68 -19 -132 -39 -107 -31
-347 -84 -458 -100 -24 -4 -47 -8 -50 -10 -4 -2 -38 -7 -76 -10 -38 -4 -71 -8
-74 -10 -3 -2 -34 -6 -70 -10 -36 -3 -76 -8 -90 -10 -46 -7 -189 -22 -285 -29
-193 -16 -268 -19 -432 -20 l-182 -1 -35 34 c-23 22 -38 50 -46 81 -23 97 3
1997 36 2560 13 227 15 260 30 405 11 111 38 166 129 258 53 53 82 64 275 103
128 25 141 27 245 39 33 4 62 9 65 11 4 5 331 -4 395 -10z m-35 -3920 c30 -3
82 -8 115 -11 73 -7 138 -14 185 -21 19 -3 51 -7 70 -10 36 -4 127 -20 170
-29 14 -3 48 -10 75 -16 78 -15 259 -67 310 -88 11 -5 36 -15 55 -22 59 -21
231 -108 319 -161 271 -164 538 -424 691 -673 125 -203 224 -467 254 -675 21
-150 26 -357 13 -527 -16 -187 -81 -461 -152 -633 -50 -121 -157 -319 -177
-328 -5 -2 -8 -8 -8 -14 0 -19 -109 -155 -210 -262 -229 -242 -564 -442 -908
-542 -106 -30 -302 -70 -397 -79 -38 -4 -83 -9 -100 -11 -80 -9 -256 -4 -325
10 -142 30 -336 103 -463 173 -33 18 -61 33 -63 33 -7 0 -135 90 -184 129 -61
48 -182 169 -209 208 -61 90 -123 249 -141 365 -41 267 -74 1115 -73 1933 0
319 8 664 17 765 20 208 57 359 99 397 31 29 104 48 287 78 19 3 62 8 95 11
33 4 61 8 63 9 6 5 532 -4 592 -9z"/>
</g>
</svg>
