<?xml version="1.0" standalone="no"?>
<!DOCTYPE svg PUBLIC "-//W3C//DTD SVG 20010904//EN"
 "http://www.w3.org/TR/2001/REC-SVG-20010904/DTD/svg10.dtd">
<svg version="1.0" xmlns="http://www.w3.org/2000/svg"
 width="512.000000pt" height="512.000000pt" viewBox="0 0 512.000000 512.000000"
 preserveAspectRatio="xMidYMid meet">
<metadata>
Created by potrace 1.11, written by Peter Selinger 2001-2013
</metadata>
<g transform="translate(0.000000,512.000000) scale(0.100000,-0.100000)"
fill="#000000" stroke="none">
<path d="M2170 4884 c-30 -13 -50 -38 -65 -84 -14 -43 -24 -53 -101 -104 -54
-35 -96 -56 -114 -56 -40 0 -78 -16 -115 -49 -18 -16 -50 -31 -73 -34 -24 -4
-56 -20 -81 -41 -25 -21 -57 -37 -82 -41 -47 -8 -89 -43 -89 -75 0 -11 -10
-48 -21 -81 -21 -61 -21 -63 -4 -143 34 -155 44 -188 62 -202 47 -36 156 -29
194 12 13 14 40 34 59 44 19 10 45 32 58 49 44 60 122 28 88 -37 -8 -15 -17
-50 -21 -77 -4 -28 -20 -77 -36 -111 -17 -37 -34 -98 -43 -155 -10 -64 -24
-113 -45 -154 -22 -43 -33 -82 -40 -140 -5 -53 -19 -105 -40 -152 -18 -41 -36
-105 -42 -150 -7 -51 -20 -97 -40 -133 -18 -33 -31 -76 -35 -110 -9 -88 -25
-151 -54 -210 -17 -35 -30 -81 -35 -125 -4 -46 -18 -96 -40 -145 -23 -50 -38
-104 -46 -165 -8 -62 -20 -106 -41 -145 -18 -36 -31 -78 -34 -116 -6 -65 -29
-147 -51 -181 -8 -12 -23 -73 -34 -135 -11 -69 -26 -123 -37 -138 -26 -34 -40
-82 -50 -171 -6 -46 -22 -103 -41 -147 -20 -45 -35 -101 -40 -145 -5 -44 -21
-100 -40 -144 -20 -45 -36 -104 -42 -155 -12 -89 -5 -279 11 -309 6 -9 33 -25
62 -35 29 -9 68 -30 86 -45 18 -16 36 -29 40 -29 91 -2 206 -25 262 -51 l65
-31 258 2 258 1 87 30 c59 20 124 33 202 40 147 14 152 15 176 37 30 28 54 39
104 47 47 8 87 25 130 56 14 10 48 25 75 34 28 9 55 23 61 30 6 8 33 25 60 39
27 14 60 37 74 51 14 15 39 34 55 42 42 22 171 134 183 159 12 24 78 106 120
149 16 17 37 45 46 62 9 18 30 48 46 67 19 21 34 52 39 83 6 28 26 81 45 119
29 56 37 87 45 164 15 139 15 383 2 475 -18 120 -19 122 -50 157 -17 20 -31
51 -36 77 -6 34 -18 54 -51 87 -24 23 -44 48 -44 54 0 37 -200 234 -277 274
-61 31 -57 103 6 136 22 11 43 24 46 30 4 6 30 28 58 49 87 64 215 195 255
260 19 30 52 73 124 155 25 30 49 65 53 78 4 12 18 37 31 54 13 18 34 56 47
85 13 30 36 71 50 92 14 21 29 59 33 85 7 52 40 149 58 171 12 16 22 349 11
417 -3 24 -17 59 -31 79 -13 20 -32 60 -42 89 -10 29 -30 68 -45 85 -15 18
-27 37 -27 42 0 19 -138 147 -181 167 -24 12 -55 30 -69 41 -14 11 -47 26 -75
33 -27 7 -65 25 -83 40 -18 15 -42 30 -55 32 -52 11 -238 20 -452 21 l-230 2
-62 33 c-59 31 -67 33 -195 36 -73 2 -140 1 -148 -2z m785 -354 c39 -4 79 -11
90 -16 28 -11 86 -58 161 -130 56 -54 65 -68 74 -114 6 -30 21 -78 35 -108 36
-79 36 -213 -1 -309 -14 -38 -32 -108 -41 -158 -11 -66 -21 -97 -38 -115 -27
-29 -45 -71 -45 -106 0 -13 -15 -41 -33 -61 -19 -21 -44 -64 -56 -95 -13 -32
-27 -58 -32 -58 -5 0 -18 -18 -29 -40 -23 -45 -50 -76 -238 -266 -73 -73 -140
-135 -150 -136 -9 -1 -109 -2 -222 -2 l-205 -1 -45 -32 c-48 -34 -135 -59
-175 -49 -13 3 -27 15 -30 26 -12 36 14 156 40 186 28 32 45 94 45 162 0 55
10 90 50 177 18 38 31 85 35 128 4 49 14 84 35 120 20 36 34 81 44 145 9 57
27 119 46 159 25 54 49 154 50 209 0 6 14 31 31 57 24 37 32 62 38 127 7 68
14 89 40 125 17 23 35 65 41 92 7 30 19 54 31 61 11 7 81 16 160 21 77 5 144
12 147 16 4 4 23 4 42 0 19 -3 67 -10 105 -15z m-173 -2122 c23 -18 53 -46 67
-63 14 -16 40 -43 57 -60 18 -16 35 -45 39 -63 4 -19 20 -48 36 -66 33 -38 49
-76 49 -116 0 -16 9 -52 20 -80 25 -63 25 -94 0 -194 -10 -43 -22 -115 -25
-160 -6 -63 -14 -93 -37 -134 -16 -30 -38 -82 -49 -117 -10 -34 -26 -68 -35
-76 -8 -7 -25 -31 -36 -53 -11 -23 -36 -58 -54 -79 -19 -20 -34 -41 -34 -46 0
-6 -22 -36 -50 -67 -27 -31 -50 -60 -50 -64 0 -10 -132 -115 -167 -134 -15 -8
-39 -26 -53 -41 -14 -15 -38 -34 -55 -42 -16 -9 -46 -28 -65 -43 -19 -15 -57
-33 -84 -40 -26 -7 -60 -23 -75 -35 -35 -29 -84 -45 -140 -45 -25 0 -84 -14
-131 -30 -109 -39 -196 -41 -267 -6 -26 13 -69 27 -95 30 -33 5 -51 13 -59 28
-16 30 -1 131 33 223 21 57 34 117 44 210 10 93 22 150 43 205 21 54 32 106
40 189 9 91 17 126 40 175 24 49 31 84 40 179 9 95 17 128 40 175 22 42 32 82
40 157 14 122 30 194 49 218 23 27 64 21 98 -14 34 -37 137 -89 175 -89 14 0
59 11 100 25 41 14 103 29 138 32 53 5 71 12 100 38 23 20 56 36 90 43 29 7
67 23 83 37 42 36 89 33 140 -7z"/>
</g>
</svg>
